<svg width="16" height="16" viewBox="0 0 16 16" fill="none" xmlns="http://www.w3.org/2000/svg">
<path d="M3 1.71299C2.99986 1.59005 3.03211 1.46924 3.09349 1.36272C3.15487 1.25619 3.24322 1.16772 3.34966 1.10618C3.4561 1.04465 3.57686 1.01224 3.6998 1.01221C3.82275 1.01217 3.94353 1.04452 4.05 1.10599L14.94 7.39399C15.0463 7.45546 15.1346 7.54381 15.1959 7.65018C15.2573 7.75655 15.2896 7.87719 15.2896 7.99999C15.2896 8.12279 15.2573 8.24343 15.1959 8.3498C15.1346 8.45617 15.0463 8.54452 14.94 8.60599L4.05 14.894C3.9436 14.9554 3.82291 14.9878 3.70005 14.9878C3.5772 14.9878 3.4565 14.9555 3.35009 14.894C3.24369 14.8326 3.15532 14.7443 3.09386 14.6379C3.03241 14.5315 3.00004 14.4108 3 14.288V1.71299Z" fill="black"/>
</svg>
