<svg width="16" height="16" viewBox="0 0 16 16" fill="none" xmlns="http://www.w3.org/2000/svg">
<g id="Frame">
<path id="Vector" d="M3.3 1C3.48565 1 3.6637 1.07375 3.79497 1.20503C3.92625 1.3363 4 1.51435 4 1.7V6.85L13.95 1.106C14.0564 1.04457 14.1771 1.01223 14.2999 1.01222C14.4228 1.01221 14.5435 1.04453 14.6499 1.10595C14.7563 1.16736 14.8447 1.25569 14.9061 1.36208C14.9676 1.46846 15 1.58914 15 1.712V14.287C15.0001 14.4099 14.9679 14.5308 14.9065 14.6373C14.8451 14.7438 14.7568 14.8323 14.6503 14.8938C14.5439 14.9553 14.4231 14.9877 14.3002 14.9878C14.1773 14.9878 14.0565 14.9555 13.95 14.894L4 9.149V14.3C4 14.4857 3.92625 14.6637 3.79497 14.795C3.6637 14.9262 3.48565 15 3.3 15H1.7C1.51435 15 1.3363 14.9262 1.20503 14.795C1.07375 14.6637 1 14.4857 1 14.3V1.7C1 1.51435 1.07375 1.3363 1.20503 1.20503C1.3363 1.07375 1.51435 1 1.7 1H3.3Z" fill="white" fill-opacity="0.698"/>
</g>
</svg>
