<svg width="16" height="16" viewBox="0 0 16 16" fill="none" xmlns="http://www.w3.org/2000/svg">
<g id="Frame">
<path id="Vector" d="M13.151 0.921997C13.0823 0.84831 12.9995 0.789208 12.9075 0.748216C12.8155 0.707224 12.7162 0.685182 12.6155 0.683405C12.5148 0.681629 12.4148 0.700153 12.3214 0.737874C12.228 0.775595 12.1432 0.83174 12.072 0.902958C12.0007 0.974177 11.9446 1.05901 11.9069 1.1524C11.8692 1.24579 11.8506 1.34582 11.8524 1.44652C11.8542 1.54722 11.8762 1.64654 11.9172 1.73854C11.9582 1.83053 12.0173 1.91333 12.091 1.982L13.109 3H11.16C10.6123 3 10.0713 3.11998 9.57494 3.35148C9.07859 3.58298 8.63898 3.92039 8.287 4.34L2.114 11.696C1.90279 11.9478 1.63899 12.1502 1.34115 12.2892C1.0433 12.4281 0.718642 12.5 0.39 12.5H0V14H0.391C0.938681 14 1.47971 13.88 1.97606 13.6485C2.47241 13.417 2.91202 13.0796 3.264 12.66L9.437 5.304C9.64821 5.05221 9.91201 4.84975 10.2099 4.71084C10.5077 4.57194 10.8324 4.49997 11.161 4.5H13.108L12.091 5.518C11.9585 5.66017 11.8864 5.84822 11.8898 6.04252C11.8933 6.23682 11.972 6.42221 12.1094 6.55962C12.2468 6.69703 12.4322 6.77574 12.6265 6.77917C12.8208 6.7826 13.0088 6.71048 13.151 6.578L15.98 3.75L13.15 0.921997H13.151ZM0.391 3.5H0V2H0.391C1.5 2 2.551 2.49 3.264 3.34L4.89 5.277L3.911 6.444L2.115 4.304C1.90368 4.05208 1.63972 3.84954 1.34169 3.71063C1.04366 3.57172 0.718811 3.49983 0.39 3.5H0.391Z" fill="white" fill-opacity="0.698"/>
<path id="Vector_2" d="M7.5 10.723L8.48 9.556L9.437 10.696C9.64821 10.9478 9.91201 11.1502 10.2099 11.2892C10.5077 11.4281 10.8324 11.5 11.161 11.5H13.108L12.091 10.482C12.0173 10.4133 11.9582 10.3305 11.9172 10.2385C11.8762 10.1465 11.8542 10.0472 11.8524 9.94652C11.8506 9.84582 11.8692 9.74579 11.9069 9.6524C11.9446 9.55901 12.0007 9.47418 12.072 9.40296C12.1432 9.33174 12.228 9.27559 12.3214 9.23787C12.4148 9.20015 12.5148 9.18163 12.6155 9.18341C12.7162 9.18518 12.8155 9.20722 12.9075 9.24822C12.9995 9.28921 13.0823 9.34831 13.151 9.422L15.98 12.25L13.151 15.078C13.0823 15.1517 12.9995 15.2108 12.9075 15.2518C12.8155 15.2928 12.7162 15.3148 12.6155 15.3166C12.5148 15.3184 12.4148 15.2998 12.3214 15.2621C12.228 15.2244 12.1432 15.1683 12.072 15.097C12.0007 15.0258 11.9446 14.941 11.9069 14.8476C11.8692 14.7542 11.8506 14.6542 11.8524 14.5535C11.8542 14.4528 11.8762 14.3535 11.9172 14.2615C11.9582 14.1695 12.0173 14.0867 12.091 14.018L13.109 13H11.16C10.6123 13 10.0713 12.88 9.57494 12.6485C9.07859 12.417 8.63898 12.0796 8.287 11.66L7.5 10.723Z" fill="white" fill-opacity="0.698"/>
</g>
</svg>
