<svg width="16" height="16" viewBox="0 0 16 16" fill="none" xmlns="http://www.w3.org/2000/svg">
<g id="Frame">
<path id="Vector" d="M0 4.75C0 3.75544 0.395088 2.80161 1.09835 2.09835C1.80161 1.39509 2.75544 1 3.75 1H12.25C13.2446 1 14.1984 1.39509 14.9017 2.09835C15.6049 2.80161 16 3.75544 16 4.75V9.75C16 10.7446 15.6049 11.6984 14.9017 12.4017C14.1984 13.1049 13.2446 13.5 12.25 13.5H9.81L10.828 14.518C10.9017 14.5867 10.9608 14.6695 11.0018 14.7615C11.0428 14.8535 11.0648 14.9528 11.0666 15.0535C11.0684 15.1542 11.0498 15.2542 11.0121 15.3476C10.9744 15.441 10.9183 15.5258 10.847 15.597C10.7758 15.6683 10.691 15.7244 10.5976 15.7621C10.5042 15.7998 10.4042 15.8184 10.3035 15.8166C10.2028 15.8148 10.1035 15.7928 10.0115 15.7518C9.91946 15.7108 9.83666 15.6517 9.768 15.578L6.939 12.75L9.768 9.922C9.83666 9.84831 9.91946 9.78921 10.0115 9.74822C10.1035 9.70723 10.2028 9.68519 10.3035 9.68341C10.4042 9.68163 10.5042 9.70016 10.5976 9.73788C10.691 9.7756 10.7758 9.83174 10.847 9.90296C10.9183 9.97418 10.9744 10.059 11.0121 10.1524C11.0498 10.2458 11.0684 10.3458 11.0666 10.4465C11.0648 10.5472 11.0428 10.6465 11.0018 10.7385C10.9608 10.8305 10.9017 10.9133 10.828 10.982L9.811 12H12.25C12.8467 12 13.419 11.7629 13.841 11.341C14.2629 10.919 14.5 10.3467 14.5 9.75V4.75C14.5 4.15326 14.2629 3.58097 13.841 3.15901C13.419 2.73705 12.8467 2.5 12.25 2.5H3.75C3.15326 2.5 2.58097 2.73705 2.15901 3.15901C1.73705 3.58097 1.5 4.15326 1.5 4.75V9.75C1.5 10.3467 1.73705 10.919 2.15901 11.341C2.58097 11.7629 3.15326 12 3.75 12H5V13.5H3.75C2.75544 13.5 1.80161 13.1049 1.09835 12.4017C0.395088 11.6984 0 10.7446 0 9.75L0 4.75Z" fill="white" fill-opacity="0.698"/>
</g>
</svg>
